<svg width="54" height="54" fill="none" xmlns="http://www.w3.org/2000/svg"><rect width="54" height="54" rx="27" fill="#FF6E40"/><path d="M36.706 32.015c0 .425-.12.82-.312 1.167l-6.129-6.858 6.063-5.304c.236.374.378.814.378 1.289v9.706zM27 27.569l8.436-7.38a2.395 2.395 0 00-1.157-.307H19.72c-.42 0-.81.116-1.155.306L27 27.57zm2.352-.446l-1.953 1.71a.606.606 0 01-.798 0l-1.954-1.71-6.206 6.945a2.4 2.4 0 001.28.373h14.558a2.4 2.4 0 001.28-.373l-6.207-6.945zm-11.68-6.103a2.409 2.409 0 00-.378 1.289v9.706c0 .425.12.82.312 1.167l6.128-6.859-6.062-5.303z" fill="#251D1A"/></svg>