<svg width="36" height="36" fill="none" xmlns="http://www.w3.org/2000/svg"><rect width="36" height="36" rx="18" fill="#FF6E40"/><path d="M23.907 13.48c-.064-.24-.194-.496-.29-.72C22.464 9.992 19.947 9 17.916 9c-2.721 0-5.717 1.824-6.117 5.584v.768c0 .032.01.32.026.464.225 1.792 1.639 3.696 2.695 5.488 1.136 1.92 2.314 3.808 3.482 5.696.72-1.232 1.438-2.48 2.142-3.68.192-.352.414-.704.606-1.04.128-.224.373-.448.484-.656 1.136-2.08 2.965-4.176 2.965-6.24v-.848c0-.224-.277-1.008-.293-1.056zm-5.941 3.856c-.8 0-1.675-.4-2.107-1.504-.064-.176-.06-.528-.06-.56v-.496c0-1.408 1.196-2.048 2.236-2.048 1.28 0 2.27 1.024 2.27 2.304 0 1.28-1.059 2.304-2.34 2.304z" fill="#3B322D"/></svg>