<svg width="54" height="54" fill="none" xmlns="http://www.w3.org/2000/svg"><rect width="54" height="54" rx="27" fill="#FF6E40"/><path d="M34.22 21.476c-.079-.294-.238-.607-.355-.88C32.456 17.212 29.38 16 26.896 16c-3.324 0-6.986 2.23-7.475 6.825v.939c0 .039.013.39.033.567.274 2.19 2.002 4.517 3.292 6.707 1.389 2.347 2.83 4.655 4.257 6.962.88-1.506 1.757-3.031 2.617-4.498.235-.43.507-.86.742-1.271.156-.274.455-.547.591-.802 1.389-2.542 3.623-5.104 3.623-7.626v-1.037c0-.273-.338-1.231-.358-1.29zm-7.262 4.713c-.977 0-2.047-.49-2.575-1.839-.078-.215-.072-.645-.072-.684v-.607c0-1.72 1.46-2.503 2.732-2.503 1.564 0 2.774 1.252 2.774 2.817 0 1.564-1.294 2.816-2.859 2.816z" fill="#251D1A"/></svg>